# xmcd CD database file
#
# Track frame offsets:
#	150
#	24331
#	42726
#	60855
#	77154
#	92201
#	109805
#	126521
#	146621
#	162242
#	177573
#
# Disc length: 2622 seconds
#
# Revision: 0
# Processed by: cddbd v1.5.2PL0 Copyright (c) Steve Scherf et al.
# Submitted via: CDex 1.51
#
DISCID=970a3c0b
DTITLE=Charlie Daniels Band - Super Hits
DYEAR=1900
DGENRE=Country
TTITLE0=Uneasy Rider
TTITLE1=Long Haired Country Boy
TTITLE2=The South's Gonna Do It Again
TTITLE3=The Devil Went Down to Georgia
TTITLE4=In America
TTITLE5=Still in Saigon
TTITLE6=Drinkin' My Baby Goodbye
TTITLE7=Uneasy Rider '88
TTITLE8=Boogie Woogie Fiddle Country Blues
TTITLE9=Simple Man
TTITLE10=The Legend Of Wooley Swamp
EXTD=
EXTT0=
EXTT1=
EXTT2=
EXTT3=
EXTT4=
EXTT5=
EXTT6=
EXTT7=
EXTT8=
EXTT9=
EXTT10=
PLAYORDER=
